<?xml version="1.0" ?><!DOCTYPE svg  PUBLIC '-//W3C//DTD SVG 1.1//EN'  'http://www.w3.org/Graphics/SVG/1.1/DTD/svg11.dtd'><svg height="512px" style="enable-background:new 0 0 512 512;" version="1.1" viewBox="0 0 512 512" width="512px" xml:space="preserve" xmlns="http://www.w3.org/2000/svg" xmlns:xlink="http://www.w3.org/1999/xlink"><style type="text/css">
<![CDATA[
	.st0{display:inline;}
	.st1{fill:none;stroke:#000000;stroke-width:16;stroke-linecap:round;stroke-linejoin:round;stroke-miterlimit:10;}
	.st2{display:none;}
]]>
</style><g class="st2" id="layer_copy"><g class="st0"><polygon class="st1" points="256,62 473,279 256,62 39,279   "/><path class="st1" d="M414,295v155H98V295"/></g></g><g id="layer_copy_2"><g><path d="M473,287c-2.048,0-4.095-0.781-5.657-2.343L256,73.313L44.657,284.657c-3.124,3.123-8.189,3.123-11.313,0    C31.781,283.095,31,281.048,31,279s0.781-4.095,2.343-5.657l217-217c3.125-3.124,8.19-3.123,11.314,0l217,217    c1.562,1.563,2.343,3.609,2.343,5.657s-0.781,4.095-2.343,5.657C477.095,286.219,475.048,287,473,287z"/></g><g><path d="M414,458H98c-4.418,0-8-3.582-8-8V295c0-4.418,3.582-8,8-8s8,3.582,8,8v147h300V295c0-4.418,3.582-8,8-8s8,3.582,8,8v155    C422,454.418,418.418,458,414,458z"/></g></g></svg>