<?xml version="1.0" ?><svg id="Layer_1" style="enable-background:new 0 0 100 100;" version="1.1" viewBox="0 0 100 100" xml:space="preserve" xmlns="http://www.w3.org/2000/svg" xmlns:xlink="http://www.w3.org/1999/xlink"><path d="M95,14.25H5c-1.104,0-2,0.896-2,2v67.5c0,1.104,0.896,2,2,2h90c1.104,0,2-0.896,2-2v-67.5C97,15.146,96.104,14.25,95,14.25z   M93,81.75H7v-63.5h86V81.75z"/><path d="M12,78.75h76c1.104,0,2-0.896,2-2v-53.5c0-1.104-0.896-2-2-2H12c-1.104,0-2,0.896-2,2v53.5C10,77.854,10.896,78.75,12,78.75  z M14,74.75v-4.929l17.241-18.716c0.981-1.064,2.316-1.65,3.759-1.65s2.778,0.586,3.759,1.65l4.883,5.301  c0.003,0.003,0.005,0.007,0.007,0.01s0.006,0.005,0.009,0.008l13.811,14.991c0.394,0.428,0.932,0.645,1.471,0.645  c0.484,0,0.97-0.175,1.354-0.529c0.813-0.748,0.864-2.014,0.116-2.826l-12.464-13.53l11.887-10.953  c1.98-1.819,4.959-1.821,6.932-0.001L86,61.937V74.75H14z M86,25.25v31.249L69.477,41.28c-3.458-3.189-8.882-3.191-12.352-0.001  L45.237,52.233l-3.536-3.839c-1.722-1.868-4.164-2.939-6.701-2.939s-4.979,1.071-6.701,2.94L14,63.917V25.25H86z"/><path d="M45.318,44.935c4.162,0,7.548-3.386,7.548-7.548s-3.386-7.548-7.548-7.548s-7.548,3.386-7.548,7.548  S41.156,44.935,45.318,44.935z M45.318,33.839c1.956,0,3.548,1.592,3.548,3.548s-1.592,3.548-3.548,3.548s-3.548-1.592-3.548-3.548  S43.362,33.839,45.318,33.839z"/></svg>